<?xml version="1.0" encoding="UTF-8"?> <svg xmlns="http://www.w3.org/2000/svg" width="1920.999" height="740.001" viewBox="0 0 1920.999 740.001" preserveAspectRatio="none"><path id="Union_118" data-name="Union 118" d="M-7050-7632v-627.024c20.718-.166,41.924-1.272,63.116-3.067-7.391-.424-13.864-.895-20.319-1.115.71-.227,10.439-.189,25.71-.889,12.651-.555,29.124-1.655,47.311-3.756q4.176-.555,8.326-1.131c-12.525,1.164-22.475,1.857-30.819,2.336-9.029.52-16.187.761-22.742.934-13.113.311-23.824.358-42.338.529-.019-.271,1.948-.613,5.582-1.027s8.945-.872,15.647-1.483c13.389-1.223,32.3-2.935,54.338-5.523,22.044-2.571,47.2-6.021,73.1-10.309,25.905-4.269,52.557-9.347,77.689-14.706a98.718,98.718,0,0,1,13.956-4.149l-.445.093c-5.076,1.067-9.786,1.939-13.576,2.557-23.933,4.767-49.059,9.212-73.332,12.868-24.267,3.672-47.67,6.546-68.086,8.606s-37.842,3.312-50.151,4.03c-6.157.354-11.036.588-14.374.729l-3.821.128a9.943,9.943,0,0,1-1.321,0,10.154,10.154,0,0,1,1.311-.13l3.811-.257,14.345-.973c12.29-.884,29.679-2.279,50.05-4.482,20.374-2.187,43.719-5.206,67.918-8.994,24.208-3.769,49.265-8.315,73.137-13.17,3.7-.885,8.349-1.914,13.414-2.978,1.542-.321,8.113-1.661,18.33-3.905s24.09-5.359,40.139-9.405c32.088-8.17,53.731-15.435,56.649-16.351,4.821-1.565,9.311-2.979,12.922-4.045q14.417-4.821,26.8-9.22c8.273-2.925,16.021-5.677,22.931-8.345l19.466-7.336c3.288-1.3,6.45-2.481,9.261-3.536s5.349-2.019,7.611-2.945c1.3-.531,2.489-1.049,3.611-1.559h2.134a123.144,123.144,0,0,1-12.181,5.248c-2.819,1.1-5.891,2.271-9.153,3.6l-9,3.5-18.863,7.307c-13.214,4.891-27.2,9.907-41.79,14.854-3.487,1.324-7.9,2.885-12.737,4.461-.384.119-1.1.353-2.113.678a81.247,81.247,0,0,1,11-2.732c14.017-4.549,27.725-9.2,40.939-13.807,6.662-2.282,12.939-4.669,19.191-6.937l9.242-3.374,4.54-1.653,4.767-1.779c6.269-2.3,11.819-4.217,16.448-6.248,1.162-.5,2.254-1.013,3.294-1.523.653-.314,1.922-.993,3.128-1.594H-5130v9.212h0v410.331c-35.634,17.538-72.809,34.111-111.25,49.779,2.25-.836,4.723-1.773,7.578-2.878,8.042-3.116,19.1-7.5,36.376-14.939-11.958,5.3-39.941,17.378-55.721,23.813-7.87,3.258-12.647,5.187-10.7,4.439s10.609-4.174,29.406-12.076c-10.219,4.7-21.061,9.55-32.387,14.435q-8.49,3.671-17.313,7.368l-4.422,1.847-2.124.893-2.065.985c-2.937,1.372-5.87,2.828-8.87,4.151,1.851-.71,3.664-1.536,5.5-2.3l5.422-2.321,10.893-4.065q11.083-4.166,22.122-8.428,22.072-8.55,43.927-17.593c29.132-12.065,46.046-18.855,74.45-32.405-32.906,16.66-54.637,26.2-88.794,40.7q-25.623,10.863-51.6,21.021l-6.5,2.523-1.624.63-.813.317-.3.118c-.076.027-.147.061-.221.092l-3.042,1.355-6.477,2.876-6.515,2.691c-8.691,3.586-17.454,6.884-26.237,10.1-17.582,6.4-35.3,12.309-53.072,18.006s-35.615,11.153-53.5,16.433c-35.765,10.588-71.683,20.567-107.658,30.2-23.861,6.494-61.154,16.307-107.42,27.622-11.571,2.819-23.7,5.739-36.351,8.676q-9.489,2.206-19.382,4.4c-3.311.725-6.632,1.456-10.053,2.158-1.706.338-3.437.725-5.143,1.025s-3.433.636-5.113,1q-20.314,4.179-41.763,8.595c-7.118,1.5-14.412,2.863-21.75,4.288l-22.239,4.288c-45.49,8.647-93.509,17.005-141.947,24.709l-9.415,1.627-14.872,2.569c-4.954.867-9.922,1.628-14.882,2.445-79.355,13.05-158.654,24.181-237.439,33.708-3.269.6-12.988,1.6-3.054.376l-35.207,4.078c-8.8,1.023-17.6,2.04-24.214,2.727l-11.013,1.185-18.412,1.962c-6.139.664-12.277,1.311-18.42,1.9l-36.853,3.66c-24.582,2.282-49.16,4.609-73.763,6.607,39.04-3.471,82.994-7.891,127.023-12.622,11-1.223,22.015-2.443,32.956-3.66,10.945-1.185,21.8-2.557,32.523-3.8l15.964-1.893,7.882-.935,7.8-.987,30.307-3.838c-10.708.954-43.668,4.485-25.954,2.506-2.153.118,11.513-1.7,33.061-4.481l37.21-5.036c6.853-.943,13.96-1.859,21.17-2.9l.476-.068q-18.237,2.292-35.976,4.408c-33.041,4.3-80.727,10.291-127.343,15.295-99.513,10.916-193.948,18.174-128.576,11.939,21.3-2.065,43.1-4.09,65.317-6.458,22.233-2.229,44.884-4.8,67.952-7.347q4.864-.544,9.75-1.118c-21.02,2.095-40.6,3.942-58.369,5.555-42.416,3.773-74.57,6.16-91.576,7.265-17.019,1.015-18.891.775-.8-1.1,9.044-.96,23.071-2.425,42.7-4.345,9.813-.941,21.006-2.168,33.679-3.45q9.508-.97,20.124-2.057l22.368-2.422c-52.544,4.569-105.164,8.361-157.854,10.952,5.536-.571,10.744-1.1,15.66-1.6-244.819,19.744-444.507,23.647-537.219,24.284Zm1435.208-150.878c-17.088,4.3-34.37,8.542-47.725,11.763s-22.781,5.422-24.134,5.737l-22.624,5.473c-4.624,1.114-6.55,1.567-6.4,1.593s2.355-.408,5.95-1.185,8.584-1.876,14.294-3.181c22.855-5.191,57.271-13.721,61.456-14.683q4.214-1.029,8.424-2.065,19.927-5.309,42.317-11.488C-5592.96-7788.41-5603.836-7785.63-5614.792-7782.877Zm37.279-8.6q10.635-2.717,21.258-5.471c-2.749.55-3.673.641-3.067.346Q-5568.407-7794.025-5577.512-7791.478ZM-6478.2-7645.787l-.962.081S-6478.829-7645.735-6478.2-7645.787Zm15.107-1.332c-28.786,2.5,6.908-.607,20.78-1.807-10.689.941-25.242,2.225-32.443,2.857-1.5.122-2.683.218-3.443.282C-6476.344-7645.946-6471.673-7646.352-6463.094-7647.119Zm23.654-1.863-10.733.962Zm-.807-.122c-.609.055-1.315.113-2.067.179C-6429.411-7650.064-6422.14-7650.707-6440.247-7649.1Zm13.473-1.013-12.666,1.135Zm116.611-7.506c.447-.057,1.181-.109,2.118-.181-5.822.62-10.675,1.135-10.758,1.135C-6318.863-7656.668-6316.455-7656.936-6310.163-7657.623Zm5.317-2.456c9.859-1.088,19.781-2.185,28.351-3.132-9.445,1.158-18.859,2.185-28.242,3.227l-28.08,3.1C-6324.5-7657.881-6314.707-7658.993-6304.845-7660.079Zm17.065-2.164-36.834,4.143C-6312.787-7659.5-6300.186-7660.907-6287.78-7662.243Zm20.931-.326c7.658-.784.5.023-3.172.475C-6268.77-7662.266-6267.684-7662.428-6266.85-7662.568Zm30.062-5.937c-12.76,1.575-25.283,3.115-37.8,4.48C-6262.273-7665.6-6249.226-7666.992-6236.788-7668.5Zm3.953-.488q-1.964.246-3.953.488Zm632.058-103.252c37.5-10.258,84.032-23.426,129.156-37.086,45.132-13.63,88.834-27.824,120.889-39.475,16.032-5.8,29.17-10.87,38.175-14.613,2.252-.927,4.248-1.746,5.966-2.452l4.3-1.864c2.244-.977,2.9-1.26,3.139-1.368-1.758.786-4.33,1.964-7.634,3.4l-12.013,5.006c-9.359,3.731-21.286,8.414-35.126,13.378-27.662,10.069-62.954,21.725-100.216,33.252-74.5,23.122-156.927,45.567-200.935,56.727,7.428-1.994,46.439-12.141,106.861-29.279,3.868-1.116-.494.139-21.435,6.015,17.422-4.95,26.179-7.439,28.7-8.156,2.519-.735-1.187.338-8.691,2.462-15,4.286-45.223,12.712-71.194,19.685-25.956,7.006-47.683,12.563-45.393,11.96l23.861-6.273c15.565-4.139,39.54-10.557,74.271-20.307-43.16,12.044-53.519,14.681-61.284,16.813-7.794,2.053-12.973,3.578-46.242,12.095C-5666.756-7754.646-5638.269-7761.976-5600.777-7772.245Zm275.41-79.813c1.1-.443,1.3-.527-.6.206C-5319.98-7854.176-5320.245-7854.064-5325.367-7852.058Zm130.011-68.283-1.942.911Zm2.8-1.312-2.8,1.312Z" transform="translate(7050.5 8371.5)" fill="#273f67" stroke="rgba(0,0,0,0)" stroke-miterlimit="10" stroke-width="1"></path></svg> 