<?xml version="1.0" encoding="UTF-8"?> <svg xmlns="http://www.w3.org/2000/svg" width="1920" height="653.313" viewBox="0 0 1920 653.313" preserveAspectRatio="none"><path id="Union_119" data-name="Union 119" d="M4108.25,4530.333c-27.175-1.767-55.659-3.509-85.065-5.178-39.582-2.235-80.84-4.2-122.965-5.923-84.239-3.452-171.65-6.455-254.594-9.366-4.684.018-9.944-.009-15.667-.083,5.095.215,9.878.427,14.268.628,78.738,3,160.956,6.126,239.791,9.576,39.416,1.734,77.936,3.616,114.76,5.732s72.062,4.439,104.794,6.72c65.478,4.581,121.054,9.147,160.246,12.57,9.8.87,18.573,1.646,26.228,2.325l19.479,1.786c5.3.5,9.38.883,12.133,1.144l3.12.307c.35.038.613.067.79.084a2.574,2.574,0,0,1,.263.038,2.1,2.1,0,0,1-.27-.013l-.794-.062-3.133-.262-12.155-1.05c-5.312-.46-11.846-1.028-19.5-1.694s-16.444-1.4-26.247-2.234c-39.217-3.306-94.811-7.758-160.3-12.231-32.735-2.227-67.978-4.482-104.8-6.564-36.818-2.064-75.331-3.9-114.746-5.585-78.831-3.358-161.055-6.4-239.8-9.331-12.345-.362-27.773-.876-44.518-1.5-10.2-.382-86.582-3.225-195.079-7.265-108.466-3.939-184.822-6.71-195.025-7.081-16.721-.553-32.09-1.121-44.4-1.58-78.636-2.389-144.355-3.856-200.8-5.05s-103.649-2.027-145.365-2.725c-83.433-1.387-144.938-2.227-214.822-3,.154,0,15.15.136,43.118.385,27.967.269,68.6.669,119.1,1.311s110.869,1.479,178.3,2.7,141.919,2.79,220.58,5.12c5.929.123,12.565.289,19.715.492q-2.351-.146-4.61-.3c-83.551-2.746-164.691-4.751-239.334-6.442s-142.809-3-200.508-4.1L2675,4481.4c-68.559-.844-140.738-1.589-216.168-2.228V3959.839h0V3899.5H4378.812v565.85l.007,8.869.015,78.594C4272.455,4542.507,4180.292,4535.328,4108.25,4530.333Zm63.062,10.2L4168,4540.3c-2.9-.21-7.165-.518-12.593-.907-10.854-.785-26.379-1.9-45.066-3.181-37.369-2.556-87.426-5.8-137.9-8.439-25.246-1.33-50.668-2.513-74.726-3.566-12.035-.514-23.717-1.015-34.854-1.492l-31.626-1.3-71-2.791c-14.955-.58-25.953-1.193-28.395-1.514,4.851-.081,13.524.157,28.48.736,3.738.148,31.482,1.265,71,2.852l31.624,1.33,34.856,1.532c24.056,1.082,49.479,2.3,74.727,3.663,50.471,2.706,100.519,6.035,137.873,8.686,18.68,1.324,34.194,2.491,45.039,3.326l12.577.984,3.308.272c.748.064,1.13.1,1.13.1S4172.063,4540.583,4171.313,4540.531Zm-552.161-26.623-.017.014-.781-.036-.784-.024.017-.012c-9.557-.437-16.789-.792-21.307-1.047,6.607.179,13.92.377,21.9.6l.018-.013.778.036c.266.007.518.014.785.023l-.017.011c9.558.438,16.788.8,21.3,1.056ZM3586.5,4512.7l-.1,0,0-.015c-1.25-.141-2.19-.272-2.777-.394.878-.057,1.848-.1,2.9-.141l0-.015.1.012.1,0,0,.014c1.247.141,2.19.273,2.777.4q-1.318.083-2.906.14l0,.015Zm-5.889-.482c-.251,0-.625-.013-1.116-.023l-4.357-.129-16.545-.559-59.234-2.105-181.36-6.584c-33.246-1.216-66.686-2.437-98.336-3.6l-11.78-.431q-5.834-.193-11.566-.378l-22.461-.723-41.652-1.22c-52.121-1.46-89.234-2.27-95.4-2.42-24.682-.586-50.785-1.74-54.352-1.862,16.85-.09,29.755-.132,54.443.453,6.17.151,43.287,1,95.415,2.531l41.658,1.281q10.988.368,22.465.756l11.566.4q5.845.224,11.78.45c31.646,1.213,65.081,2.5,98.323,3.768,66.493,2.58,132.217,5.129,181.319,7.033l59.2,2.37,16.532.7c1.9.089,3.364.155,4.348.2.491.028.864.048,1.114.061a3.232,3.232,0,0,1,.375.032.615.615,0,0,1-.145.007C3580.78,4512.222,3580.7,4512.221,3580.607,4512.219Z" transform="translate(-2458.834 -3899.5)" fill="#ff4f1f"></path></svg> 